<mxfile host="app.diagrams.net" modified="2022-07-04T16:30:26.114Z" agent="5.0 (Macintosh; Intel Mac OS X 10_15_7) AppleWebKit/605.1.15 (KHTML, like Gecko) Version/15.2 Safari/605.1.15" etag="sDBtYPObCb42L6eR47o0" version="20.0.4" type="github">
  <diagram id="E8ij6bNULRkzV7nuNc92" name="Page-1">
    <mxGraphModel dx="1892" dy="1102" grid="1" gridSize="10" guides="1" tooltips="1" connect="1" arrows="1" fold="1" page="1" pageScale="1" pageWidth="850" pageHeight="1100" math="0" shadow="0">
      <root>
        <mxCell id="0" />
        <mxCell id="1" parent="0" />
        <mxCell id="ef2hi01INSJFAYTvMsVB-1" style="edgeStyle=orthogonalEdgeStyle;rounded=0;orthogonalLoop=1;jettySize=auto;html=1;exitX=1;exitY=0.5;exitDx=0;exitDy=0;entryX=0;entryY=0.5;entryDx=0;entryDy=0;" edge="1" parent="1" source="ef2hi01INSJFAYTvMsVB-4" target="ef2hi01INSJFAYTvMsVB-9">
          <mxGeometry relative="1" as="geometry" />
        </mxCell>
        <mxCell id="ef2hi01INSJFAYTvMsVB-2" style="edgeStyle=orthogonalEdgeStyle;rounded=0;orthogonalLoop=1;jettySize=auto;html=1;exitX=1;exitY=0.5;exitDx=0;exitDy=0;entryX=0;entryY=0.5;entryDx=0;entryDy=0;" edge="1" parent="1" source="ef2hi01INSJFAYTvMsVB-4" target="ef2hi01INSJFAYTvMsVB-13">
          <mxGeometry relative="1" as="geometry" />
        </mxCell>
        <mxCell id="ef2hi01INSJFAYTvMsVB-3" style="edgeStyle=orthogonalEdgeStyle;rounded=0;orthogonalLoop=1;jettySize=auto;html=1;exitX=1;exitY=0.5;exitDx=0;exitDy=0;entryX=0;entryY=0.5;entryDx=0;entryDy=0;" edge="1" parent="1" source="ef2hi01INSJFAYTvMsVB-4" target="ef2hi01INSJFAYTvMsVB-43">
          <mxGeometry relative="1" as="geometry" />
        </mxCell>
        <mxCell id="ef2hi01INSJFAYTvMsVB-4" value="GameObject" style="rounded=0;whiteSpace=wrap;html=1;" vertex="1" parent="1">
          <mxGeometry x="120" y="370" width="120" height="60" as="geometry" />
        </mxCell>
        <mxCell id="ef2hi01INSJFAYTvMsVB-5" style="edgeStyle=orthogonalEdgeStyle;rounded=0;orthogonalLoop=1;jettySize=auto;html=1;exitX=1;exitY=0.5;exitDx=0;exitDy=0;entryX=0;entryY=0.5;entryDx=0;entryDy=0;" edge="1" parent="1" source="ef2hi01INSJFAYTvMsVB-9" target="ef2hi01INSJFAYTvMsVB-14">
          <mxGeometry relative="1" as="geometry" />
        </mxCell>
        <mxCell id="ef2hi01INSJFAYTvMsVB-6" style="edgeStyle=orthogonalEdgeStyle;rounded=0;orthogonalLoop=1;jettySize=auto;html=1;exitX=1;exitY=0.5;exitDx=0;exitDy=0;entryX=0;entryY=0.5;entryDx=0;entryDy=0;" edge="1" parent="1" source="ef2hi01INSJFAYTvMsVB-9" target="ef2hi01INSJFAYTvMsVB-15">
          <mxGeometry relative="1" as="geometry" />
        </mxCell>
        <mxCell id="ef2hi01INSJFAYTvMsVB-7" style="edgeStyle=orthogonalEdgeStyle;rounded=0;orthogonalLoop=1;jettySize=auto;html=1;exitX=1;exitY=0.5;exitDx=0;exitDy=0;entryX=0;entryY=0.5;entryDx=0;entryDy=0;" edge="1" parent="1" source="ef2hi01INSJFAYTvMsVB-9" target="ef2hi01INSJFAYTvMsVB-17">
          <mxGeometry relative="1" as="geometry" />
        </mxCell>
        <mxCell id="ef2hi01INSJFAYTvMsVB-8" style="edgeStyle=orthogonalEdgeStyle;rounded=0;orthogonalLoop=1;jettySize=auto;html=1;exitX=1;exitY=0.5;exitDx=0;exitDy=0;entryX=0;entryY=0.5;entryDx=0;entryDy=0;" edge="1" parent="1" source="ef2hi01INSJFAYTvMsVB-9" target="ef2hi01INSJFAYTvMsVB-21">
          <mxGeometry relative="1" as="geometry" />
        </mxCell>
        <mxCell id="ef2hi01INSJFAYTvMsVB-9" value="Player" style="rounded=0;whiteSpace=wrap;html=1;fillColor=#d5e8d4;strokeColor=#82b366;" vertex="1" parent="1">
          <mxGeometry x="305" y="140" width="120" height="60" as="geometry" />
        </mxCell>
        <mxCell id="ef2hi01INSJFAYTvMsVB-10" style="edgeStyle=orthogonalEdgeStyle;rounded=0;orthogonalLoop=1;jettySize=auto;html=1;exitX=1;exitY=0.5;exitDx=0;exitDy=0;entryX=0;entryY=0.5;entryDx=0;entryDy=0;" edge="1" parent="1" source="ef2hi01INSJFAYTvMsVB-13" target="ef2hi01INSJFAYTvMsVB-32">
          <mxGeometry relative="1" as="geometry" />
        </mxCell>
        <mxCell id="ef2hi01INSJFAYTvMsVB-11" style="edgeStyle=orthogonalEdgeStyle;rounded=0;orthogonalLoop=1;jettySize=auto;html=1;exitX=1;exitY=0.5;exitDx=0;exitDy=0;entryX=0;entryY=0.5;entryDx=0;entryDy=0;" edge="1" parent="1" source="ef2hi01INSJFAYTvMsVB-13" target="ef2hi01INSJFAYTvMsVB-35">
          <mxGeometry relative="1" as="geometry" />
        </mxCell>
        <mxCell id="ef2hi01INSJFAYTvMsVB-12" value="Child" style="edgeStyle=orthogonalEdgeStyle;rounded=0;orthogonalLoop=1;jettySize=auto;html=1;exitX=0.5;exitY=1;exitDx=0;exitDy=0;entryX=0.5;entryY=0;entryDx=0;entryDy=0;fillColor=#e1d5e7;strokeColor=#9673a6;" edge="1" parent="1" source="ef2hi01INSJFAYTvMsVB-13" target="ef2hi01INSJFAYTvMsVB-40">
          <mxGeometry relative="1" as="geometry" />
        </mxCell>
        <mxCell id="ef2hi01INSJFAYTvMsVB-13" value="Pipe" style="rounded=0;whiteSpace=wrap;html=1;fillColor=#d5e8d4;strokeColor=#82b366;" vertex="1" parent="1">
          <mxGeometry x="305" y="730" width="120" height="60" as="geometry" />
        </mxCell>
        <mxCell id="ef2hi01INSJFAYTvMsVB-14" value="RigidBody2D" style="rounded=0;whiteSpace=wrap;html=1;fillColor=#ffe6cc;strokeColor=#d79b00;" vertex="1" parent="1">
          <mxGeometry x="480" y="40" width="120" height="60" as="geometry" />
        </mxCell>
        <mxCell id="ef2hi01INSJFAYTvMsVB-15" value="BoxCollision2D" style="rounded=0;whiteSpace=wrap;html=1;fillColor=#ffe6cc;strokeColor=#d79b00;" vertex="1" parent="1">
          <mxGeometry x="480" y="110" width="120" height="60" as="geometry" />
        </mxCell>
        <mxCell id="ef2hi01INSJFAYTvMsVB-16" style="edgeStyle=orthogonalEdgeStyle;rounded=0;orthogonalLoop=1;jettySize=auto;html=1;exitX=1;exitY=0.5;exitDx=0;exitDy=0;" edge="1" parent="1" source="ef2hi01INSJFAYTvMsVB-17" target="ef2hi01INSJFAYTvMsVB-23">
          <mxGeometry relative="1" as="geometry" />
        </mxCell>
        <mxCell id="ef2hi01INSJFAYTvMsVB-17" value="InputSystem" style="rounded=0;whiteSpace=wrap;html=1;fillColor=#ffe6cc;strokeColor=#d79b00;" vertex="1" parent="1">
          <mxGeometry x="480" y="180" width="120" height="60" as="geometry" />
        </mxCell>
        <mxCell id="ef2hi01INSJFAYTvMsVB-18" style="edgeStyle=orthogonalEdgeStyle;rounded=0;orthogonalLoop=1;jettySize=auto;html=1;exitX=1;exitY=0.5;exitDx=0;exitDy=0;entryX=0;entryY=0.5;entryDx=0;entryDy=0;" edge="1" parent="1" source="ef2hi01INSJFAYTvMsVB-21" target="ef2hi01INSJFAYTvMsVB-25">
          <mxGeometry relative="1" as="geometry" />
        </mxCell>
        <mxCell id="ef2hi01INSJFAYTvMsVB-19" style="edgeStyle=orthogonalEdgeStyle;rounded=0;orthogonalLoop=1;jettySize=auto;html=1;exitX=1;exitY=0.5;exitDx=0;exitDy=0;entryX=0;entryY=0.5;entryDx=0;entryDy=0;" edge="1" parent="1" source="ef2hi01INSJFAYTvMsVB-21" target="ef2hi01INSJFAYTvMsVB-26">
          <mxGeometry relative="1" as="geometry" />
        </mxCell>
        <mxCell id="ef2hi01INSJFAYTvMsVB-20" style="edgeStyle=orthogonalEdgeStyle;rounded=0;orthogonalLoop=1;jettySize=auto;html=1;exitX=1;exitY=0.5;exitDx=0;exitDy=0;entryX=0;entryY=0.5;entryDx=0;entryDy=0;" edge="1" parent="1" source="ef2hi01INSJFAYTvMsVB-21" target="ef2hi01INSJFAYTvMsVB-38">
          <mxGeometry relative="1" as="geometry" />
        </mxCell>
        <mxCell id="ef2hi01INSJFAYTvMsVB-21" value="Code" style="rounded=0;whiteSpace=wrap;html=1;fillColor=#dae8fc;strokeColor=#6c8ebf;" vertex="1" parent="1">
          <mxGeometry x="480" y="320" width="120" height="60" as="geometry" />
        </mxCell>
        <mxCell id="ef2hi01INSJFAYTvMsVB-22" style="edgeStyle=orthogonalEdgeStyle;rounded=0;orthogonalLoop=1;jettySize=auto;html=1;exitX=1;exitY=0.5;exitDx=0;exitDy=0;" edge="1" parent="1" source="ef2hi01INSJFAYTvMsVB-23" target="ef2hi01INSJFAYTvMsVB-24">
          <mxGeometry relative="1" as="geometry" />
        </mxCell>
        <mxCell id="ef2hi01INSJFAYTvMsVB-23" value="Jump" style="rounded=0;whiteSpace=wrap;html=1;fillColor=#fff2cc;strokeColor=#d6b656;" vertex="1" parent="1">
          <mxGeometry x="640" y="180" width="120" height="60" as="geometry" />
        </mxCell>
        <mxCell id="ef2hi01INSJFAYTvMsVB-24" value="*read*&lt;br&gt;Spacebar" style="rounded=0;whiteSpace=wrap;html=1;fillColor=#d5e8d4;strokeColor=#82b366;" vertex="1" parent="1">
          <mxGeometry x="800" y="180" width="120" height="60" as="geometry" />
        </mxCell>
        <mxCell id="ef2hi01INSJFAYTvMsVB-25" value="Start" style="rounded=0;whiteSpace=wrap;html=1;fillColor=#dae8fc;strokeColor=#6c8ebf;" vertex="1" parent="1">
          <mxGeometry x="640" y="270" width="120" height="60" as="geometry" />
        </mxCell>
        <mxCell id="ef2hi01INSJFAYTvMsVB-26" value="Update" style="rounded=0;whiteSpace=wrap;html=1;fillColor=#dae8fc;strokeColor=#6c8ebf;" vertex="1" parent="1">
          <mxGeometry x="640" y="360" width="120" height="60" as="geometry" />
        </mxCell>
        <mxCell id="ef2hi01INSJFAYTvMsVB-27" style="edgeStyle=orthogonalEdgeStyle;rounded=0;orthogonalLoop=1;jettySize=auto;html=1;exitX=1;exitY=0.5;exitDx=0;exitDy=0;entryX=0;entryY=0.5;entryDx=0;entryDy=0;" edge="1" parent="1" source="ef2hi01INSJFAYTvMsVB-28" target="ef2hi01INSJFAYTvMsVB-41">
          <mxGeometry relative="1" as="geometry" />
        </mxCell>
        <mxCell id="ef2hi01INSJFAYTvMsVB-28" value="Start" style="rounded=0;whiteSpace=wrap;html=1;fillColor=#dae8fc;strokeColor=#6c8ebf;" vertex="1" parent="1">
          <mxGeometry x="640" y="690" width="120" height="60" as="geometry" />
        </mxCell>
        <mxCell id="ef2hi01INSJFAYTvMsVB-29" style="edgeStyle=orthogonalEdgeStyle;rounded=0;orthogonalLoop=1;jettySize=auto;html=1;exitX=1;exitY=0.5;exitDx=0;exitDy=0;entryX=0;entryY=0.5;entryDx=0;entryDy=0;" edge="1" parent="1" source="ef2hi01INSJFAYTvMsVB-31" target="ef2hi01INSJFAYTvMsVB-36">
          <mxGeometry relative="1" as="geometry" />
        </mxCell>
        <mxCell id="ef2hi01INSJFAYTvMsVB-30" style="edgeStyle=orthogonalEdgeStyle;rounded=0;orthogonalLoop=1;jettySize=auto;html=1;exitX=1;exitY=0.5;exitDx=0;exitDy=0;entryX=0;entryY=0.5;entryDx=0;entryDy=0;" edge="1" parent="1" source="ef2hi01INSJFAYTvMsVB-31" target="ef2hi01INSJFAYTvMsVB-55">
          <mxGeometry relative="1" as="geometry" />
        </mxCell>
        <mxCell id="ef2hi01INSJFAYTvMsVB-31" value="Update" style="rounded=0;whiteSpace=wrap;html=1;fillColor=#dae8fc;strokeColor=#6c8ebf;" vertex="1" parent="1">
          <mxGeometry x="640" y="770" width="120" height="60" as="geometry" />
        </mxCell>
        <mxCell id="ef2hi01INSJFAYTvMsVB-32" value="BoxCollision2D" style="rounded=0;whiteSpace=wrap;html=1;fillColor=#ffe6cc;strokeColor=#d79b00;" vertex="1" parent="1">
          <mxGeometry x="460" y="680" width="120" height="60" as="geometry" />
        </mxCell>
        <mxCell id="ef2hi01INSJFAYTvMsVB-33" style="edgeStyle=orthogonalEdgeStyle;rounded=0;orthogonalLoop=1;jettySize=auto;html=1;exitX=1;exitY=0.5;exitDx=0;exitDy=0;entryX=0;entryY=0.5;entryDx=0;entryDy=0;" edge="1" parent="1" source="ef2hi01INSJFAYTvMsVB-35" target="ef2hi01INSJFAYTvMsVB-28">
          <mxGeometry relative="1" as="geometry" />
        </mxCell>
        <mxCell id="ef2hi01INSJFAYTvMsVB-34" style="edgeStyle=orthogonalEdgeStyle;rounded=0;orthogonalLoop=1;jettySize=auto;html=1;exitX=1;exitY=0.5;exitDx=0;exitDy=0;entryX=0;entryY=0.5;entryDx=0;entryDy=0;" edge="1" parent="1" source="ef2hi01INSJFAYTvMsVB-35" target="ef2hi01INSJFAYTvMsVB-31">
          <mxGeometry relative="1" as="geometry" />
        </mxCell>
        <mxCell id="ef2hi01INSJFAYTvMsVB-35" value="Code" style="rounded=0;whiteSpace=wrap;html=1;fillColor=#dae8fc;strokeColor=#6c8ebf;" vertex="1" parent="1">
          <mxGeometry x="460" y="770" width="120" height="60" as="geometry" />
        </mxCell>
        <mxCell id="ef2hi01INSJFAYTvMsVB-36" value="transform.translate&lt;br&gt;(left)" style="rounded=0;whiteSpace=wrap;html=1;fillColor=#d5e8d4;strokeColor=#82b366;" vertex="1" parent="1">
          <mxGeometry x="800" y="770" width="120" height="60" as="geometry" />
        </mxCell>
        <mxCell id="ef2hi01INSJFAYTvMsVB-37" style="edgeStyle=orthogonalEdgeStyle;rounded=0;orthogonalLoop=1;jettySize=auto;html=1;exitX=1;exitY=0.5;exitDx=0;exitDy=0;entryX=0;entryY=0.5;entryDx=0;entryDy=0;" edge="1" parent="1" source="ef2hi01INSJFAYTvMsVB-38" target="ef2hi01INSJFAYTvMsVB-39">
          <mxGeometry relative="1" as="geometry" />
        </mxCell>
        <mxCell id="ef2hi01INSJFAYTvMsVB-38" value="Jump" style="rounded=0;whiteSpace=wrap;html=1;fillColor=#fff2cc;strokeColor=#d6b656;" vertex="1" parent="1">
          <mxGeometry x="640" y="440" width="120" height="60" as="geometry" />
        </mxCell>
        <mxCell id="ef2hi01INSJFAYTvMsVB-39" value="Rigidbody add force up" style="rounded=0;whiteSpace=wrap;html=1;fillColor=#d5e8d4;strokeColor=#82b366;" vertex="1" parent="1">
          <mxGeometry x="800" y="440" width="120" height="60" as="geometry" />
        </mxCell>
        <mxCell id="ef2hi01INSJFAYTvMsVB-40" value="Checker" style="rounded=0;whiteSpace=wrap;html=1;fillColor=#e1d5e7;strokeColor=#9673a6;" vertex="1" parent="1">
          <mxGeometry x="305" y="890" width="120" height="60" as="geometry" />
        </mxCell>
        <mxCell id="ef2hi01INSJFAYTvMsVB-41" value="InvokeRepeating" style="rounded=0;whiteSpace=wrap;html=1;fillColor=#d5e8d4;strokeColor=#82b366;" vertex="1" parent="1">
          <mxGeometry x="800" y="690" width="120" height="60" as="geometry" />
        </mxCell>
        <mxCell id="ef2hi01INSJFAYTvMsVB-42" style="edgeStyle=orthogonalEdgeStyle;rounded=0;orthogonalLoop=1;jettySize=auto;html=1;exitX=1;exitY=0.5;exitDx=0;exitDy=0;entryX=0;entryY=0.5;entryDx=0;entryDy=0;" edge="1" parent="1" source="ef2hi01INSJFAYTvMsVB-43" target="ef2hi01INSJFAYTvMsVB-54">
          <mxGeometry relative="1" as="geometry" />
        </mxCell>
        <mxCell id="ef2hi01INSJFAYTvMsVB-43" value="Spawner" style="rounded=0;whiteSpace=wrap;html=1;fillColor=#d5e8d4;strokeColor=#82b366;" vertex="1" parent="1">
          <mxGeometry x="305" y="1280" width="120" height="60" as="geometry" />
        </mxCell>
        <mxCell id="ef2hi01INSJFAYTvMsVB-44" style="edgeStyle=orthogonalEdgeStyle;rounded=0;orthogonalLoop=1;jettySize=auto;html=1;exitX=1;exitY=0.5;exitDx=0;exitDy=0;entryX=0;entryY=0.5;entryDx=0;entryDy=0;" edge="1" parent="1" source="ef2hi01INSJFAYTvMsVB-45" target="ef2hi01INSJFAYTvMsVB-47">
          <mxGeometry relative="1" as="geometry" />
        </mxCell>
        <mxCell id="ef2hi01INSJFAYTvMsVB-45" value="Start" style="rounded=0;whiteSpace=wrap;html=1;fillColor=#dae8fc;strokeColor=#6c8ebf;" vertex="1" parent="1">
          <mxGeometry x="630" y="1190" width="120" height="60" as="geometry" />
        </mxCell>
        <mxCell id="ef2hi01INSJFAYTvMsVB-46" value="Update" style="rounded=0;whiteSpace=wrap;html=1;fillColor=#dae8fc;strokeColor=#6c8ebf;" vertex="1" parent="1">
          <mxGeometry x="630" y="1280" width="120" height="60" as="geometry" />
        </mxCell>
        <mxCell id="ef2hi01INSJFAYTvMsVB-47" value="InvokeRepeating" style="rounded=0;whiteSpace=wrap;html=1;fillColor=#d5e8d4;strokeColor=#82b366;" vertex="1" parent="1">
          <mxGeometry x="790" y="1190" width="120" height="60" as="geometry" />
        </mxCell>
        <mxCell id="ef2hi01INSJFAYTvMsVB-48" style="edgeStyle=orthogonalEdgeStyle;rounded=0;orthogonalLoop=1;jettySize=auto;html=1;exitX=1;exitY=0.5;exitDx=0;exitDy=0;entryX=0;entryY=0.5;entryDx=0;entryDy=0;" edge="1" parent="1" source="ef2hi01INSJFAYTvMsVB-49" target="ef2hi01INSJFAYTvMsVB-50">
          <mxGeometry relative="1" as="geometry" />
        </mxCell>
        <mxCell id="ef2hi01INSJFAYTvMsVB-49" value="Spawner" style="rounded=0;whiteSpace=wrap;html=1;fillColor=#dae8fc;strokeColor=#6c8ebf;" vertex="1" parent="1">
          <mxGeometry x="630" y="1360" width="120" height="60" as="geometry" />
        </mxCell>
        <mxCell id="ef2hi01INSJFAYTvMsVB-50" value="Instantiate random y pos" style="rounded=0;whiteSpace=wrap;html=1;fillColor=#d5e8d4;strokeColor=#82b366;" vertex="1" parent="1">
          <mxGeometry x="790" y="1360" width="120" height="60" as="geometry" />
        </mxCell>
        <mxCell id="ef2hi01INSJFAYTvMsVB-51" style="edgeStyle=orthogonalEdgeStyle;rounded=0;orthogonalLoop=1;jettySize=auto;html=1;exitX=1;exitY=0.5;exitDx=0;exitDy=0;entryX=0;entryY=0.5;entryDx=0;entryDy=0;" edge="1" parent="1" source="ef2hi01INSJFAYTvMsVB-54" target="ef2hi01INSJFAYTvMsVB-45">
          <mxGeometry relative="1" as="geometry" />
        </mxCell>
        <mxCell id="ef2hi01INSJFAYTvMsVB-52" style="edgeStyle=orthogonalEdgeStyle;rounded=0;orthogonalLoop=1;jettySize=auto;html=1;exitX=1;exitY=0.5;exitDx=0;exitDy=0;entryX=0;entryY=0.5;entryDx=0;entryDy=0;" edge="1" parent="1" source="ef2hi01INSJFAYTvMsVB-54" target="ef2hi01INSJFAYTvMsVB-46">
          <mxGeometry relative="1" as="geometry" />
        </mxCell>
        <mxCell id="ef2hi01INSJFAYTvMsVB-53" style="edgeStyle=orthogonalEdgeStyle;rounded=0;orthogonalLoop=1;jettySize=auto;html=1;exitX=1;exitY=0.5;exitDx=0;exitDy=0;entryX=0;entryY=0.5;entryDx=0;entryDy=0;" edge="1" parent="1" source="ef2hi01INSJFAYTvMsVB-54" target="ef2hi01INSJFAYTvMsVB-49">
          <mxGeometry relative="1" as="geometry" />
        </mxCell>
        <mxCell id="ef2hi01INSJFAYTvMsVB-54" value="Code" style="rounded=0;whiteSpace=wrap;html=1;fillColor=#dae8fc;strokeColor=#6c8ebf;" vertex="1" parent="1">
          <mxGeometry x="470" y="1280" width="120" height="60" as="geometry" />
        </mxCell>
        <mxCell id="ef2hi01INSJFAYTvMsVB-55" value="Destroy when left screen" style="rounded=0;whiteSpace=wrap;html=1;fillColor=#d5e8d4;strokeColor=#82b366;" vertex="1" parent="1">
          <mxGeometry x="800" y="850" width="120" height="60" as="geometry" />
        </mxCell>
      </root>
    </mxGraphModel>
  </diagram>
</mxfile>
